<?xml version="1.0" encoding="utf-8"?>
<svg width="800" height="800" viewBox="0 0 800 800" fill="none" xmlns="http://www.w3.org/2000/svg">
  <g>
    <path d="M358.333 0C365.63 0 372.567 3.189 377.313 8.73033C377.313 8.73033 477.313 125.397 477.313 125.397C486.3 135.88 485.087 151.663 474.603 160.648C464.12 169.634 448.337 168.42 439.353 157.936C439.353 157.936 383.333 92.5813 383.333 92.5813C383.333 92.5813 383.333 458.333 383.333 458.333C383.333 472.14 372.14 483.333 358.333 483.333C344.527 483.333 333.333 472.14 333.333 458.333C333.333 458.333 333.333 92.5813 333.333 92.5813C333.333 92.5813 277.315 157.936 277.315 157.936C268.329 168.42 252.547 169.634 242.064 160.648C231.58 151.663 230.366 135.88 239.352 125.397C239.352 125.397 339.353 8.73033 339.353 8.73033C344.1 3.189 351.037 0 358.333 0ZM191.528 233.399C205.334 233.322 216.589 244.452 216.666 258.259C216.743 272.066 205.613 283.321 191.806 283.398C155.356 283.601 129.52 284.547 109.912 288.149C91.018 291.62 80.082 297.193 71.967 305.307C62.7417 314.533 56.7267 327.487 53.4383 351.943C50.053 377.123 50 410.493 50 458.34C50 458.34 50 491.673 50 491.673C50 539.52 50.053 572.89 53.4383 598.07C56.7267 622.53 62.7417 635.48 71.967 644.707C81.1923 653.933 94.1447 659.947 118.604 663.237C143.782 666.62 177.153 666.673 225 666.673C225 666.673 491.667 666.673 491.667 666.673C539.513 666.673 572.883 666.62 598.063 663.237C622.523 659.947 635.473 653.933 644.7 644.707C653.927 635.48 659.94 622.53 663.23 598.07C666.613 572.89 666.667 539.52 666.667 491.673C666.667 491.673 666.667 458.34 666.667 458.34C666.667 410.493 666.613 377.123 663.23 351.943C659.94 327.487 653.927 314.533 644.7 305.307C636.583 297.193 625.65 291.62 606.757 288.149C587.147 284.547 561.31 283.601 524.86 283.398C511.053 283.321 499.923 272.066 500 258.259C500.077 244.452 511.333 233.322 525.14 233.399C561.19 233.599 591.237 234.462 615.787 238.972C641.053 243.613 662.557 252.454 680.057 269.952C700.12 290.016 708.75 315.28 712.783 345.283C716.667 374.18 716.667 410.927 716.667 456.51C716.667 456.51 716.667 493.503 716.667 493.503C716.667 539.09 716.667 575.833 712.783 604.733C708.75 634.737 700.12 659.997 680.057 680.063C659.99 700.127 634.73 708.757 604.727 712.79C575.827 716.677 539.083 716.673 493.497 716.673C493.497 716.673 223.171 716.673 223.171 716.673C177.585 716.673 140.841 716.677 111.942 712.79C81.938 708.757 56.6757 700.127 36.6117 680.063C16.5477 659.997 7.91801 634.737 3.88402 604.733C-0.00131989 575.833 -0.000652313 539.09 1.52588e-05 493.503C1.52588e-05 493.503 1.52588e-05 456.51 1.52588e-05 456.51C-0.000652313 410.923 -0.00131989 374.18 3.88402 345.283C7.91801 315.28 16.5477 290.016 36.6117 269.952C54.1094 252.454 75.6117 243.613 100.878 238.972C125.43 234.462 155.477 233.599 191.528 233.399Z" fill="#FFFFFF" fill-rule="evenodd" transform="translate(41.667 41.667)" />
  </g>
</svg>